<svg id="Group_1032" data-name="Group 1032" xmlns="http://www.w3.org/2000/svg" width="21.715" height="18.375" viewBox="0 0 21.715 18.375">
  <path id="Path_330" data-name="Path 330" d="M-356.261,508.724a1.609,1.609,0,0,0,.489,1.181,1.609,1.609,0,0,0,1.181.489,1.608,1.608,0,0,0,1.181-.489,1.608,1.608,0,0,0,.49-1.181,1.608,1.608,0,0,0-.49-1.181,1.61,1.61,0,0,0-1.181-.489,1.611,1.611,0,0,0-1.181.489A1.61,1.61,0,0,0-356.261,508.724Z" transform="translate(372.965 -492.02)" fill="#fff"/>
  <path id="Path_331" data-name="Path 331" d="M-390.951,458.429a.8.8,0,0,0-.587-.248h-15.673c-.009-.061-.028-.172-.059-.333s-.054-.289-.072-.385a2.307,2.307,0,0,0-.1-.346,1.04,1.04,0,0,0-.17-.32.836.836,0,0,0-.261-.2.8.8,0,0,0-.372-.085h-3.341a.8.8,0,0,0-.587.248.8.8,0,0,0-.248.587.8.8,0,0,0,.248.587.8.8,0,0,0,.587.248h2.662l2.31,10.74q-.026.052-.267.5t-.385.776a1.432,1.432,0,0,0-.144.516.8.8,0,0,0,.248.587.8.8,0,0,0,.587.248h13.362a.8.8,0,0,0,.587-.248.8.8,0,0,0,.248-.587.8.8,0,0,0-.248-.587.8.8,0,0,0-.587-.248h-12.006a2.52,2.52,0,0,0,.313-.835,1.415,1.415,0,0,0-.033-.287c-.022-.1-.048-.22-.078-.346s-.05-.22-.059-.281l13.624-1.592a.811.811,0,0,0,.535-.281.822.822,0,0,0,.208-.555v-6.682A.8.8,0,0,0-390.951,458.429Z" transform="translate(412.418 -456.511)" fill="#fff"/>
  <path id="Path_332" data-name="Path 332" d="M-395.572,508.724a1.608,1.608,0,0,0,.489,1.181,1.61,1.61,0,0,0,1.181.489,1.608,1.608,0,0,0,1.181-.489,1.608,1.608,0,0,0,.49-1.181,1.608,1.608,0,0,0-.49-1.181,1.61,1.61,0,0,0-1.181-.489,1.611,1.611,0,0,0-1.181.489A1.61,1.61,0,0,0-395.572,508.724Z" transform="translate(400.583 -492.02)" fill="#fff"/>
</svg>
